<svg id="visual" viewBox="0 0 2000 1200" width="2000" height="1200" xmlns="http://www.w3.org/2000/svg" xmlns:xlink="http://www.w3.org/1999/xlink" version="1.1"><rect x="0" y="0" width="2000" height="1200" fill="#0A174E"></rect><path d="M0 870L33.3 900.3C66.7 930.7 133.3 991.3 200 1018C266.7 1044.7 333.3 1037.3 400 1001.7C466.7 966 533.3 902 600 904.5C666.7 907 733.3 976 800 986.2C866.7 996.3 933.3 947.7 1000 931.8C1066.7 916 1133.3 933 1200 954.3C1266.7 975.7 1333.3 1001.3 1400 1011.5C1466.7 1021.7 1533.3 1016.3 1600 990.3C1666.7 964.3 1733.3 917.7 1800 903C1866.7 888.3 1933.3 905.7 1966.7 914.3L2000 923L2000 1201L1966.7 1201C1933.3 1201 1866.7 1201 1800 1201C1733.3 1201 1666.7 1201 1600 1201C1533.3 1201 1466.7 1201 1400 1201C1333.3 1201 1266.7 1201 1200 1201C1133.3 1201 1066.7 1201 1000 1201C933.3 1201 866.7 1201 800 1201C733.3 1201 666.7 1201 600 1201C533.3 1201 466.7 1201 400 1201C333.3 1201 266.7 1201 200 1201C133.3 1201 66.7 1201 33.3 1201L0 1201Z" fill="#F5D042" stroke-linecap="round" stroke-linejoin="miter"></path></svg>